P1
# Created by GIMP version 2.10.34 PNM plug-in
10 10
1001110000111111000001100001100010000110010000011000111000000010101110
001110101000000011101110000000