P1
# Created by GIMP version 2.10.34 PNM plug-in
15 15
0000000000000000111111111111100100000000000100101111111110100101000000
0101001010111110101001010100010101001010101010101001010101010101001010
1010101010010101000101010010101111101010010100000001010010111111111010
011000000000110