P1
# Created by GIMP version 2.10.34 PNM plug-in
10 10
0000000000000000000000100111000101010100000101010000010101000001010100
011101110000000000000000000000