P1
# Created by GIMP version 2.10.34 PNM plug-in
30 30
0000000000000000000010101010100000000000000000000000000000010000000000
0000000000101111110000000000000000000000001000010100001111111111111000
1010000100000011111111111110000011111101000011000000000000001000000000
0000110000000000000000101010100000110011111001111100000000000000110000
1010010100000000000000001100001010010100000000000000001100001110011100
0000000000000011000000000000000000000000000011000000011100000000000000
0000110000000111000000000000000000110000000000000000000000000000000000
0111111100110000000000000000000111111100110000000000000000000000000000
1100000000000000010100000000001100000000000000010100000000001100000000
0000000111000000000011000000000000000010000000000011000000000000000010
0000000000110000000000000000100000000000110000000000000011111011111111
1100000000000000000000111111111100000000000000000000000000000000000000
000000000000000000000000000000000000000000000000000000000000