P1
# Created by GIMP version 2.10.34 PNM plug-in
10 10
1010000000000000000000111111000010000100001011010000100001000011111100
000000000000000011100000001010