P1
# Created by GIMP version 2.10.34 PNM plug-in
10 10
0000000000000000000001010111000101010100010101110000000010000000000000
000010010001111111100000000000